# Blender v2.82 (sub 7) OBJ File: ''
# www.blender.org
mtllib platform.mtl
o Cube
v 5.000000 0.000000 -2.000000
v 4.634439 -1.390472 -0.241263
v 5.000000 0.000000 2.000000
v 4.634439 -1.390472 0.241263
v -5.000000 0.000000 -2.000000
v -4.634439 -1.390472 -0.241263
v -5.000000 0.000000 2.000000
v -4.634439 -1.390472 0.241263
v 0.000000 -0.400000 -2.000000
v 0.000000 -0.400000 2.000000
vt 0.625000 0.500000
vt 0.875000 0.500000
vt 0.875000 0.750000
vt 0.625000 0.750000
vt 0.375000 0.750000
vt 0.625000 1.000000
vt 0.375000 1.000000
vt 0.375000 0.875000
vt 0.375000 0.000000
vt 0.625000 0.000000
vt 0.625000 0.250000
vt 0.375000 0.250000
vt 0.375000 0.375000
vt 0.375000 0.500000
vn 0.0000 1.0000 0.0000
vn 0.0000 -0.7066 0.7076
vn -0.9671 -0.2543 0.0000
vn 0.2090 -0.9779 0.0000
vn 0.9671 -0.2543 0.0000
vn 0.0000 -0.7066 -0.7076
vn -0.2090 -0.9779 0.0000
usemtl Material
s off
f 1/1/1 5/2/1 7/3/1 3/4/1
f 4/5/2 3/4/2 7/6/2 8/7/2 10/8/2
f 8/9/3 7/10/3 5/11/3 6/12/3
f 8/7/4 6/12/4 9/13/4 10/8/4
f 2/14/5 1/1/5 3/4/5 4/5/5
f 6/12/6 5/11/6 1/1/6 2/14/6 9/13/6
f 10/8/7 9/13/7 2/14/7 4/5/7
